<svg xmlns="http://www.w3.org/2000/svg" xmlns:xlink="http://www.w3.org/1999/xlink" width="487.951" height="40.728" viewBox="0 0 487.951 40.728">
  <defs>
    <clipPath id="clip-path">
      <rect id="Rectangle_369" data-name="Rectangle 369" width="487.951" height="40.728" fill="#fff"/>
    </clipPath>
  </defs>
  <g id="Group_1784" data-name="Group 1784" transform="translate(0 0)">
    <g id="Group_1783" data-name="Group 1783" transform="translate(0 0)" clip-path="url(#clip-path)">
      <path id="Path_8787" data-name="Path 8787" d="M111.37,10.666a4.407,4.407,0,0,0-2.046-1.41,7.275,7.275,0,0,0-2.443-.457,6.463,6.463,0,0,0-1.391.158,5.42,5.42,0,0,0-1.35.5,2.994,2.994,0,0,0-1.033.894,2.268,2.268,0,0,0-.4,1.35,2.235,2.235,0,0,0,.954,1.947,8.974,8.974,0,0,0,2.4,1.152q1.448.48,3.117.954A12.938,12.938,0,0,1,112.3,17.1a7.4,7.4,0,0,1,2.4,2.345,7.151,7.151,0,0,1,.952,3.932,9.065,9.065,0,0,1-.872,4.093,8.281,8.281,0,0,1-2.365,2.9,10.008,10.008,0,0,1-3.456,1.709A15.863,15.863,0,0,1,99.73,31.8a12.749,12.749,0,0,1-4.369-2.7l4.41-4.849a6.418,6.418,0,0,0,2.4,1.967,6.774,6.774,0,0,0,4.53.517,4.981,4.981,0,0,0,1.389-.535,3,3,0,0,0,.993-.915,2.272,2.272,0,0,0,.378-1.31,2.38,2.38,0,0,0-.972-2.008,9.026,9.026,0,0,0-2.443-1.252q-1.471-.516-3.178-1.032a14.209,14.209,0,0,1-3.178-1.391,7.668,7.668,0,0,1-2.445-2.3,6.606,6.606,0,0,1-.972-3.774,8.443,8.443,0,0,1,.894-3.973,8.656,8.656,0,0,1,2.382-2.86,10.4,10.4,0,0,1,3.437-1.728A14.041,14.041,0,0,1,107,3.078a15.769,15.769,0,0,1,4.61.676,10.636,10.636,0,0,1,4.012,2.263Z" transform="translate(66.191 2.137)" fill="#fff"/>
      <path id="Path_8788" data-name="Path 8788" d="M133.738,20.781a13.56,13.56,0,0,1-.756,4.608,10.11,10.11,0,0,1-2.245,3.656,10.274,10.274,0,0,1-3.713,2.423,15.578,15.578,0,0,1-10.29,0,10.274,10.274,0,0,1-3.713-2.423,10.111,10.111,0,0,1-2.245-3.656,13.56,13.56,0,0,1-.756-4.608V3.5h6.2V20.543a6.857,6.857,0,0,0,.417,2.423,5.761,5.761,0,0,0,1.172,1.926,5.3,5.3,0,0,0,1.806,1.272,5.7,5.7,0,0,0,2.285.456,5.567,5.567,0,0,0,2.265-.456,5.392,5.392,0,0,0,1.787-1.272,5.845,5.845,0,0,0,1.172-1.926,6.9,6.9,0,0,0,.415-2.423V3.5h6.2Z" transform="translate(76.366 2.429)" fill="#fff"/>
      <path id="Path_8789" data-name="Path 8789" d="M142.688,10.666a4.407,4.407,0,0,0-2.046-1.41A7.275,7.275,0,0,0,138.2,8.8a6.462,6.462,0,0,0-1.391.158,5.42,5.42,0,0,0-1.35.5,2.994,2.994,0,0,0-1.033.894,2.267,2.267,0,0,0-.4,1.35,2.235,2.235,0,0,0,.954,1.947,8.974,8.974,0,0,0,2.4,1.152q1.448.48,3.117.954a12.939,12.939,0,0,1,3.119,1.35,7.4,7.4,0,0,1,2.4,2.345,7.151,7.151,0,0,1,.952,3.932,9.065,9.065,0,0,1-.872,4.093,8.281,8.281,0,0,1-2.365,2.9,10.008,10.008,0,0,1-3.456,1.709,15.864,15.864,0,0,1-9.236-.278,12.749,12.749,0,0,1-4.369-2.7l4.41-4.849a6.418,6.418,0,0,0,2.4,1.967,6.774,6.774,0,0,0,4.53.517,4.981,4.981,0,0,0,1.389-.535,3,3,0,0,0,.993-.915,2.272,2.272,0,0,0,.378-1.31,2.38,2.38,0,0,0-.972-2.008,9.026,9.026,0,0,0-2.443-1.252q-1.471-.516-3.178-1.032a14.209,14.209,0,0,1-3.178-1.391,7.668,7.668,0,0,1-2.445-2.3,6.606,6.606,0,0,1-.972-3.774,8.443,8.443,0,0,1,.894-3.973,8.656,8.656,0,0,1,2.382-2.86,10.4,10.4,0,0,1,3.437-1.728,14.041,14.041,0,0,1,4.012-.576,15.769,15.769,0,0,1,4.61.676,10.636,10.636,0,0,1,4.012,2.263Z" transform="translate(87.929 2.137)" fill="#fff"/>
      <path id="Path_8790" data-name="Path 8790" d="M186.414,20.781a13.561,13.561,0,0,1-.756,4.608,10.111,10.111,0,0,1-2.245,3.656,10.274,10.274,0,0,1-3.714,2.423,15.578,15.578,0,0,1-10.29,0,10.274,10.274,0,0,1-3.713-2.423,10.11,10.11,0,0,1-2.245-3.656,13.561,13.561,0,0,1-.756-4.608V3.5h6.2V20.543a6.858,6.858,0,0,0,.417,2.423,5.761,5.761,0,0,0,1.172,1.926,5.3,5.3,0,0,0,1.806,1.272,5.7,5.7,0,0,0,2.285.456,5.566,5.566,0,0,0,2.265-.456,5.392,5.392,0,0,0,1.787-1.272,5.846,5.846,0,0,0,1.172-1.926,6.9,6.9,0,0,0,.415-2.423V3.5h6.2Z" transform="translate(112.929 2.429)" fill="#fff"/>
      <path id="Path_8791" data-name="Path 8791" d="M180.335,3.5h19.108V9.221H186.532v5.245h12.2v5.719h-12.2v5.721h13.626v5.721H180.335Z" transform="translate(125.172 2.43)" fill="#fff"/>
      <path id="Path_8792" data-name="Path 8792" d="M195.676,3.5h6.2V13.988h12.037V3.5h6.2V31.627h-6.2V19.47H201.875V31.627h-6.2Z" transform="translate(135.821 2.43)" fill="#fff"/>
      <path id="Path_8793" data-name="Path 8793" d="M224.913,3.5h5.125l12.235,28.127h-6.992l-2.423-5.96H221.933l-2.343,5.96h-6.834Zm2.384,8.184-3.417,8.738h6.873Z" transform="translate(147.676 2.43)" fill="#fff"/>
      <path id="Path_8794" data-name="Path 8794" d="M232.838,3.5h8.423l11.957,19.547h.08V3.5h6.2V31.627h-8.1L239.114,11.6h-.078V31.627h-6.2Z" transform="translate(161.615 2.43)" fill="#fff"/>
      <path id="Path_8795" data-name="Path 8795" d="M252.212,3.5h8.423l11.957,19.547h.08V3.5h6.2V31.627h-8.1L258.489,11.6h-.078V31.627h-6.2Z" transform="translate(175.063 2.43)" fill="#fff"/>
      <path id="Path_8796" data-name="Path 8796" d="M282.762,3.5h5.125l12.235,28.127H293.13l-2.423-5.96H279.782l-2.343,5.96h-6.834Zm2.384,8.184-3.417,8.738H288.6Z" transform="translate(187.83 2.43)" fill="#fff"/>
      <path id="Path_8797" data-name="Path 8797" d="M173.03,29.254l-3.764-2.878a14.372,14.372,0,0,0,1.274-2.4,15.907,15.907,0,0,0,1.132-6.117,15.9,15.9,0,0,0-1.132-6.119,13.45,13.45,0,0,0-3.16-4.669,13.926,13.926,0,0,0-4.806-2.958,18.393,18.393,0,0,0-12.157,0,13.926,13.926,0,0,0-4.806,2.958,13.427,13.427,0,0,0-3.16,4.669,15.9,15.9,0,0,0-1.13,6.119,15.907,15.907,0,0,0,1.13,6.117,13.42,13.42,0,0,0,3.16,4.667,13.9,13.9,0,0,0,4.806,2.96,18.393,18.393,0,0,0,12.157,0,14.461,14.461,0,0,0,2.983-1.526l4.318,3.3Zm-12.94-3.016a9.92,9.92,0,0,1-7.19,0,8.068,8.068,0,0,1-2.761-1.887,8.326,8.326,0,0,1-1.769-2.86,10.328,10.328,0,0,1-.615-3.634,10.381,10.381,0,0,1,.615-3.617,8.3,8.3,0,0,1,1.769-2.88A8.068,8.068,0,0,1,152.9,9.473a9.92,9.92,0,0,1,7.19,0,8.068,8.068,0,0,1,2.761,1.887,8.3,8.3,0,0,1,1.767,2.88,10.343,10.343,0,0,1,.617,3.617,10.29,10.29,0,0,1-.617,3.634,8.864,8.864,0,0,1-.471.971l-4.7-3.595-3.153,4.123,4.061,3.105c-.093.042-.169.1-.264.142" transform="translate(98.092 2.137)" fill="#fff"/>
      <path id="Path_8798" data-name="Path 8798" d="M0,11.616c4.591,2.683,7.015,6.343,16.575,6.343s15.56-6.343,26.914-6.343c11.469,0,17.724,6.343,29.206,6.343,11.349,0,15.808-6.343,26.777-6.343,11.091,0,17.088,6.343,26.906,6.343S139.513,14,145.133,11.616V26.468c-5.619,2.387-8.928,6.2-18.754,6.2s-15.815-6.344-26.906-6.344c-10.969,0-15.428,6.344-26.777,6.344-11.483,0-17.737-6.344-29.206-6.344-11.354,0-17.344,6.344-26.914,6.344S4.591,29.157,0,26.468Z" transform="translate(0 8.063)" fill="#fff" fill-rule="evenodd"/>
      <path id="Path_8799" data-name="Path 8799" d="M0,4.9H0v8.13c4.591,2.685,7.015,6.123,16.575,6.123s15.56-6.273,26.914-6.273c11.469,0,17.724,6.273,29.206,6.273,11.349,0,15.808-6.273,26.777-6.273,11.091,0,17.088,6.273,26.906,6.273s13.134-3.732,18.754-6.123V4.9c-5.619,2.385-8.928,6.273-18.754,6.273S110.564,4.9,99.473,4.9C88.5,4.9,84.045,11.168,72.7,11.168,61.213,11.168,54.959,4.9,43.49,4.9c-11.354,0-17.344,6.273-26.914,6.273S4.591,7.58,0,4.9" transform="translate(0 3.398)" fill="#fff" fill-rule="evenodd"/>
      <path id="Path_8800" data-name="Path 8800" d="M0,0H0V4.767c4.591,2.616,7.015,6.124,16.575,6.124S32.136,4.616,43.49,4.616c11.469,0,17.724,6.275,29.206,6.275,11.349,0,15.808-6.275,26.777-6.275,11.091,0,17.088,6.275,26.906,6.275s13.134-3.739,18.754-6.124V0c-5.619,2.394-8.928,6.275-18.754,6.275S110.564,0,99.473,0C88.5,0,84.045,6.275,72.7,6.275,61.213,6.275,54.959,0,43.49,0,32.136,0,26.145,6.275,16.575,6.275S4.591,2.689,0,0" transform="translate(0 0)" fill="#fff" fill-rule="evenodd"/>
    </g>
  </g>
</svg>
